<svg width="107" height="19" viewBox="0 0 107 19" fill="none" xmlns="http://www.w3.org/2000/svg">
<path d="M0 0.652L2.072 0.678C3.814 0.699 5.563 0.627 7.296 0.763C8.44344 0.828614 9.53681 1.27252 10.4052 2.02534C11.2737 2.77816 11.8682 3.79748 12.096 4.924C12.281 5.64349 12.3104 6.39418 12.1822 7.12593C12.054 7.85769 11.7711 8.55366 11.3525 9.16738C10.9339 9.78109 10.3891 10.2984 9.75457 10.6848C9.12005 11.0712 8.4104 11.3177 7.673 11.408C6.53721 11.5372 5.39297 11.5764 4.251 11.525C3.858 11.525 3.765 11.649 3.769 12.025C3.788 13.725 3.777 15.431 3.777 17.134V17.668H0V0.652ZM3.832 8.321C4.302 8.321 4.732 8.338 5.15 8.321C5.74695 8.32097 6.34279 8.26978 6.931 8.168C7.37254 8.07119 7.76654 7.82354 8.04523 7.46765C8.32393 7.11176 8.46988 6.66987 8.458 6.218C8.49875 5.7828 8.39391 5.34637 8.1599 4.97718C7.9259 4.60798 7.57597 4.32689 7.165 4.178C6.07305 3.92851 4.94881 3.85125 3.833 3.949L3.832 8.321Z" fill="#0D1136"/>
<path d="M14 17.821V6H17.567V17.821H14Z" fill="#0D1136"/>
<path d="M17.826 2.13308C17.8261 2.41295 17.7702 2.69 17.6617 2.94796C17.5532 3.20593 17.3942 3.4396 17.1941 3.63524C16.9939 3.83088 16.7567 3.98455 16.4964 4.08722C16.236 4.18989 15.9578 4.23948 15.678 4.23308C15.1212 4.2172 14.5925 3.98471 14.2044 3.58506C13.8164 3.18541 13.5995 2.65014 13.6 2.09308C13.6125 1.5362 13.8415 1.00611 14.2384 0.615324C14.6354 0.224543 15.169 0.00384614 15.726 8.33319e-05C16.0053 -0.00241526 16.2822 0.0512976 16.5403 0.158025C16.7984 0.264752 17.0323 0.422311 17.2283 0.621325C17.4242 0.820339 17.5781 1.05674 17.6808 1.31645C17.7835 1.57617 17.8329 1.85389 17.826 2.13308Z" fill="#008D71"/>
<path d="M31.9389 9.61658L28.8809 10.5346C28.5927 10.0888 28.2549 9.67721 27.8739 9.30758C27.5174 9.0494 27.1023 8.88398 26.6659 8.82623C26.2296 8.76847 25.7857 8.82019 25.3743 8.97673C24.9629 9.13327 24.5969 9.38971 24.3094 9.72294C24.0218 10.0562 23.8216 10.4557 23.7269 10.8856C23.6112 11.4707 23.6092 12.0727 23.7209 12.6586C23.8255 13.1922 24.0972 13.6787 24.4966 14.0476C24.8961 14.4166 25.4027 14.6487 25.9429 14.7106C26.5089 14.8352 27.1006 14.7593 27.6168 14.4959C28.133 14.2325 28.5417 13.798 28.7729 13.2666C28.8259 13.1666 29.0159 13.0406 29.1029 13.0666C30.0719 13.3426 31.0339 13.6456 32.0589 13.9606C31.9799 14.2294 31.8865 14.4938 31.7789 14.7526C31.3316 15.7648 30.5932 16.621 29.6578 17.2122C28.7223 17.8034 27.6321 18.1029 26.5259 18.0726C25.6877 18.1045 24.8515 17.9683 24.0667 17.672C23.2819 17.3757 22.5643 16.9254 21.9562 16.3476C21.3481 15.7697 20.8618 15.076 20.5259 14.3073C20.19 13.5386 20.0114 12.7105 20.0005 11.8717C19.9897 11.0329 20.1467 10.2004 20.4626 9.4232C20.7784 8.64605 21.2465 7.93996 21.8394 7.34653C22.4323 6.75309 23.138 6.28431 23.9149 5.9678C24.6918 5.65129 25.5241 5.49345 26.3629 5.50358C27.2441 5.47247 28.1206 5.64431 28.9248 6.00583C29.729 6.36735 30.4393 6.90887 31.0009 7.58858C31.4746 8.17776 31.7967 8.87408 31.9389 9.61658Z" fill="#0D1136"/>
<path d="M37.664 9.828C38.512 8.893 39.425 8.008 40.189 7.009C40.4566 6.60472 40.8339 6.28516 41.2767 6.08783C41.7196 5.89051 42.2095 5.82361 42.689 5.895C43.714 5.995 44.755 5.916 45.897 5.916L41.263 10.898L45.997 17.798C44.697 17.798 43.478 17.768 42.26 17.812C42.0426 17.838 41.8224 17.7966 41.6292 17.6935C41.436 17.5903 41.2792 17.4302 41.18 17.235C40.416 16.021 39.597 14.842 38.764 13.596C38.364 14.032 37.983 14.432 37.626 14.854C37.555 14.938 37.568 15.106 37.567 15.236V17.772H34V0.5H37.554V9.8L37.664 9.828Z" fill="#0D1136"/>
<path d="M48.005 0.805393H48.521C50.757 0.825393 52.999 0.741393 55.221 0.894393C56.2389 0.906127 57.2214 1.26948 58.002 1.92287C58.7826 2.57625 59.3133 3.47946 59.504 4.47939C59.7108 5.3556 59.6061 6.27645 59.208 7.0839C58.8098 7.89134 58.143 8.535 57.322 8.90439C57.2898 8.9203 57.2598 8.94049 57.233 8.96439C57.7622 9.2328 58.2688 9.54347 58.748 9.89339C59.4812 10.5723 59.9577 11.4834 60.0969 12.4729C60.2361 13.4624 60.0295 14.4696 59.512 15.3244C59.0938 16.0671 58.484 16.6839 57.7461 17.1105C57.0082 17.537 56.1693 17.7577 55.317 17.7494C52.924 17.8334 50.526 17.7764 48.13 17.7794C48.0853 17.7722 48.0416 17.7594 48 17.7414L48.005 0.805393ZM51.668 14.7054H53.768C54.0351 14.7095 54.3022 14.6985 54.568 14.6724C55.037 14.6438 55.4795 14.4452 55.8126 14.1139C56.1458 13.7826 56.3468 13.3412 56.378 12.8724C56.4347 12.4238 56.322 11.9702 56.062 11.6004C55.8019 11.2305 55.4133 10.9709 54.972 10.8724C53.894 10.7084 52.788 10.7174 51.667 10.6504L51.668 14.7054ZM51.668 7.60539C52.427 7.60539 53.156 7.62439 53.884 7.59639C54.202 7.57992 54.5157 7.51483 54.814 7.40339C55.156 7.28177 55.4484 7.05075 55.6458 6.74612C55.8432 6.44149 55.9347 6.08026 55.906 5.71839C55.9315 5.34664 55.8237 4.97796 55.602 4.6785C55.3802 4.37905 55.059 4.16841 54.696 4.08439C53.709 3.92439 52.696 3.92539 51.668 3.85539V7.60539Z" fill="#008D71"/>
<path d="M72.2914 17.6364H69.0964L68.9704 16.4624C68.5957 16.8091 68.1999 17.1324 67.7854 17.4304C66.3754 18.3304 63.3264 18.3034 62.0284 16.1954C61.7274 15.7165 61.5489 15.1708 61.5087 14.6065C61.4685 14.0423 61.5679 13.4768 61.7981 12.96C62.0283 12.4433 62.3822 11.9912 62.8286 11.6437C63.275 11.2962 63.8 11.0639 64.3574 10.9674C65.4264 10.7094 66.5284 10.5834 67.6144 10.3974C67.7064 10.3814 67.7974 10.3644 67.8894 10.3504C68.0641 10.3489 68.2336 10.2909 68.3725 10.1851C68.5115 10.0793 68.6125 9.93137 68.6604 9.76341C68.7105 9.58227 68.7094 9.39083 68.6573 9.21027C68.6053 9.02971 68.5042 8.86708 68.3654 8.74041C68.089 8.48724 67.7492 8.31375 67.3821 8.23838C67.0149 8.16301 66.6342 8.1886 66.2804 8.31241C65.9548 8.39095 65.6574 8.55824 65.4212 8.79568C65.185 9.03312 65.0193 9.33142 64.9424 9.65741C64.9264 9.70741 64.9294 9.76341 64.9164 9.81441C64.8987 9.86345 64.8777 9.91123 64.8534 9.95741L63.3064 9.65741C62.7894 9.55741 62.2954 9.44841 61.7604 9.33641C61.8242 8.57229 62.1245 7.84702 62.6194 7.26141C63.3332 6.38683 64.3331 5.79253 65.4424 5.58341C66.8129 5.26871 68.2453 5.36045 69.5644 5.84741C70.3472 6.11699 71.0239 6.62869 71.4966 7.30844C71.9692 7.98819 72.2133 8.80072 72.1934 9.62841C72.2524 11.2764 72.2034 12.9284 72.2174 14.5784C72.2274 15.5854 72.2654 16.5944 72.2914 17.6364ZM68.6814 12.4604C68.2584 12.5234 67.8614 12.5604 67.4744 12.6454C66.8527 12.7617 66.239 12.918 65.6374 13.1134C65.1884 13.2744 65.0804 13.7134 65.0894 14.1724C65.0839 14.3799 65.1355 14.5849 65.2387 14.765C65.3419 14.9451 65.4926 15.0933 65.6744 15.1934C66.1342 15.3875 66.6456 15.4221 67.1273 15.2918C67.609 15.1615 68.0332 14.8738 68.3324 14.4744C68.6671 13.8601 68.7898 13.1525 68.6814 12.4614V12.4604Z" fill="#008D71"/>
<path d="M74.1849 6H83.8589C83.8649 6.126 83.8769 6.252 83.8769 6.379C83.8769 7.018 83.8389 7.66 83.8899 8.295C83.9074 8.51651 83.8729 8.73905 83.789 8.94481C83.7051 9.15058 83.5743 9.33386 83.4069 9.48C81.8349 11.107 80.2839 12.754 78.7259 14.394C78.6379 14.487 78.5569 14.586 78.4189 14.745H83.9379V17.845H74.0379C74.0279 17.695 74.0119 17.554 74.0119 17.413C74.0119 16.681 74.0339 15.948 74.0019 15.213C73.9917 15.0298 74.0224 14.8466 74.0915 14.6766C74.1607 14.5066 74.2667 14.3541 74.4019 14.23C75.9279 12.63 77.4379 11.021 78.9529 9.413C79.0329 9.328 79.1079 9.238 79.2319 9.096H74.1789L74.1849 6Z" fill="#008D71"/>
<path d="M96.4875 17.666H93.2875L93.1625 16.438C93.1063 16.4748 93.0546 16.5181 93.0085 16.567C91.6635 18.501 88.0905 18.436 86.5915 16.725C86.2075 16.303 85.935 15.7918 85.7989 15.2377C85.6627 14.6836 85.6673 14.1043 85.812 13.5524C85.9568 13.0005 86.2372 12.4936 86.6278 12.0777C87.0184 11.6618 87.5068 11.3501 88.0485 11.171C89.1142 10.8925 90.1945 10.6735 91.2845 10.515C91.5585 10.462 91.8375 10.434 92.1105 10.377C92.2848 10.3607 92.4503 10.2933 92.5864 10.1833C92.7225 10.0733 92.823 9.92545 92.8754 9.75846C92.9277 9.59146 92.9296 9.41272 92.8807 9.24468C92.8318 9.07664 92.7343 8.9268 92.6005 8.81398C92.338 8.55619 92.0103 8.37476 91.6524 8.28913C91.2946 8.20351 90.9203 8.21694 90.5695 8.32798C90.2337 8.3908 89.9226 8.54792 89.6728 8.78095C89.4229 9.01399 89.2445 9.31332 89.1585 9.64398C89.1245 9.74398 89.1085 9.84398 89.0725 10.003L85.9495 9.37398C86.0091 8.74879 86.2176 8.14698 86.5576 7.61894C86.8975 7.0909 87.3591 6.65199 87.9035 6.33898C88.8544 5.76505 89.936 5.44326 91.0459 5.40407C92.1559 5.36487 93.2575 5.60956 94.2465 6.11498C94.8946 6.41464 95.4414 6.89664 95.8201 7.50205C96.1987 8.10746 96.3927 8.81006 96.3785 9.52398C96.4425 11.105 96.3995 12.691 96.4155 14.275C96.4315 15.387 96.4635 16.505 96.4875 17.666ZM92.9425 12.484C92.1425 12.609 91.4425 12.697 90.7555 12.833C90.4188 12.8992 90.0934 13.0137 89.7895 13.173C89.6042 13.2817 89.4568 13.4448 89.3674 13.6402C89.2779 13.8355 89.2507 14.0536 89.2895 14.265C89.2925 14.4728 89.3535 14.6757 89.4657 14.8506C89.5779 15.0256 89.7368 15.1656 89.9245 15.255C90.1954 15.3744 90.4885 15.4352 90.7846 15.4334C91.0806 15.4315 91.3729 15.3671 91.6424 15.2444C91.9118 15.1216 92.1522 14.9433 92.3478 14.7211C92.5434 14.4988 92.6899 14.2378 92.7775 13.955C92.866 13.47 92.9211 12.9795 92.9425 12.487V12.484Z" fill="#008D71"/>
<path d="M106.857 9.43644C106.197 9.26972 105.507 9.26321 104.844 9.41744C104.303 9.55499 103.823 9.86834 103.479 10.3083C103.135 10.7483 102.947 11.29 102.944 11.8484C102.875 13.5894 102.897 15.3334 102.881 17.0754V17.7024H99.3V5.88044H102.766V7.30544C103.025 6.90189 103.37 6.56034 103.776 6.30507C104.182 6.0498 104.639 5.88707 105.115 5.82844C105.694 5.78659 106.276 5.79094 106.855 5.84144L106.857 9.43644Z" fill="#008D71"/>
</svg>
