<svg width="15" height="12" viewBox="0 0 15 12" fill="none" xmlns="http://www.w3.org/2000/svg">
<path d="M10.7 4.39911L7.79401 0.251102C7.654 0.106543 7.46649 0.0174327 7.26599 0.000125736C7.1638 -0.00604041 7.06173 0.013736 6.96924 0.0576209C6.87675 0.101506 6.79685 0.16805 6.737 0.251102L3.832 4.39911H0.661986C0.576385 4.39174 0.490209 4.40254 0.409087 4.43085C0.327965 4.45916 0.253744 4.50433 0.191314 4.56336C0.128884 4.62239 0.0796446 4.69397 0.0468435 4.77338C0.0140425 4.85279 -0.00156829 4.93823 0.00100611 5.02411V5.21512L1.65201 11.0551C1.73457 11.325 1.90046 11.5618 2.12591 11.7316C2.35137 11.9013 2.62482 11.9954 2.90701 12.0001H11.495C11.7801 12.0076 12.0593 11.9182 12.287 11.7466C12.5148 11.575 12.6776 11.3312 12.749 11.0551L14.4 5.21512V5.02411C14.4026 4.93823 14.387 4.85279 14.3542 4.77338C14.3214 4.69397 14.2721 4.62239 14.2097 4.56336C14.1473 4.50433 14.073 4.45916 13.9919 4.43085C13.9108 4.40254 13.8246 4.39174 13.739 4.39911H10.7ZM5.281 4.39911L7.26501 1.63211L9.24499 4.39911H5.281ZM7.26501 9.4231C7.01916 9.41116 6.78219 9.32739 6.5835 9.1821C6.3848 9.03682 6.23309 8.83641 6.14715 8.60575C6.06122 8.37509 6.04485 8.12431 6.10007 7.88443C6.15528 7.64456 6.27964 7.42615 6.45776 7.25626C6.63589 7.08637 6.85992 6.97245 7.10214 6.92865C7.34436 6.88485 7.59413 6.91308 7.82046 7.00983C8.0468 7.10658 8.23977 7.26761 8.37549 7.47297C8.51121 7.67832 8.58372 7.91896 8.58401 8.1651C8.57304 8.50587 8.42863 8.82869 8.18191 9.064C7.9352 9.29931 7.60591 9.42826 7.26501 9.4231Z" fill="#009E7F"/>
</svg>
