<svg width="15" height="17" viewBox="0 0 15 17" fill="none" xmlns="http://www.w3.org/2000/svg">
<rect width="15" height="17" fill="#E5E5E5"/>
<path d="M0 0H15V17H0V0Z" fill="white"/>
<path d="M13.6773 14.043L12.9633 5.043C12.9427 4.76078 12.8165 4.4967 12.6098 4.3034C12.4032 4.11009 12.1313 4.00176 11.8483 4H10.4363V6.1C10.4392 6.16334 10.4293 6.22663 10.4071 6.28602C10.3848 6.34541 10.3508 6.39968 10.307 6.44554C10.2632 6.4914 10.2106 6.52791 10.1523 6.55285C10.094 6.57779 10.0312 6.59065 9.96781 6.59065C9.9044 6.59065 9.84164 6.57779 9.78334 6.55285C9.72504 6.52791 9.6724 6.4914 9.62861 6.44554C9.58482 6.39968 9.55078 6.34541 9.52856 6.28602C9.50633 6.22663 9.49638 6.16334 9.49931 6.1V4H5.18831V6.1C5.19124 6.16334 5.18129 6.22663 5.15907 6.28602C5.13684 6.34541 5.10281 6.39968 5.05901 6.44554C5.01522 6.4914 4.96258 6.52791 4.90428 6.55285C4.84598 6.57779 4.78322 6.59065 4.71981 6.59065C4.6564 6.59065 4.59364 6.57779 4.53534 6.55285C4.47704 6.52791 4.4244 6.4914 4.38061 6.44554C4.33682 6.39968 4.30278 6.34541 4.28056 6.28602C4.25833 6.22663 4.24838 6.16334 4.25131 6.1V4H2.83931C2.5576 4.00106 2.28654 4.10778 2.07971 4.29905C1.87289 4.49032 1.74535 4.75223 1.72231 5.033L1.00731 14.039C0.980457 14.3967 1.02777 14.7561 1.14629 15.0947C1.26481 15.4333 1.45198 15.7437 1.69608 16.0066C1.94017 16.2694 2.23591 16.4791 2.56479 16.6223C2.89367 16.7655 3.24859 16.8393 3.60731 16.839H11.0773C11.4366 16.8394 11.792 16.7654 12.1213 16.6218C12.4507 16.4782 12.7467 16.2681 12.9909 16.0045C13.2351 15.741 13.4221 15.4298 13.5402 15.0905C13.6584 14.7512 13.705 14.3912 13.6773 14.033V14.043ZM9.45331 9.458L7.02931 11.882C6.98583 11.9256 6.93417 11.9603 6.87728 11.9839C6.82039 12.0075 6.75941 12.0196 6.69781 12.0196C6.63622 12.0196 6.57522 12.0075 6.51834 11.9839C6.46145 11.9603 6.40979 11.9256 6.36631 11.882L5.23031 10.746C5.14646 10.6573 5.10052 10.5393 5.10225 10.4173C5.10398 10.2952 5.15324 10.1786 5.23957 10.0923C5.3259 10.0059 5.44249 9.95667 5.56456 9.95494C5.68663 9.95321 5.80457 9.99915 5.89331 10.083L6.69331 10.883L8.78531 8.791C8.82838 8.74542 8.88015 8.70894 8.93756 8.68372C8.99497 8.65849 9.05686 8.64504 9.11956 8.64415C9.18226 8.64326 9.24451 8.65496 9.30261 8.67854C9.36071 8.70213 9.41349 8.73713 9.45784 8.78147C9.50218 8.82581 9.53718 8.8786 9.56076 8.9367C9.58435 8.9948 9.59605 9.05705 9.59516 9.11975C9.59427 9.18245 9.58081 9.24434 9.55559 9.30175C9.53037 9.35916 9.49389 9.41093 9.44831 9.454L9.45331 9.458Z" fill="#009E7F"/>
<path d="M7.343 0.849998C6.52326 0.851847 5.73761 1.17831 5.15796 1.75796C4.57831 2.33761 4.25185 3.12325 4.25 3.943V4.006H5.187V3.943C5.187 3.37132 5.41409 2.82306 5.81833 2.41883C6.22256 2.0146 6.77082 1.7875 7.3425 1.7875C7.91417 1.7875 8.46243 2.0146 8.86667 2.41883C9.2709 2.82306 9.498 3.37132 9.498 3.943V4.006H10.435V3.943C10.4331 3.12342 10.1068 2.33793 9.52739 1.75831C8.94796 1.17869 8.16258 0.852111 7.343 0.849998V0.849998Z" fill="#009E7F"/>
</svg>
