<svg width="232" height="298" viewBox="0 0 232 298" fill="none" xmlns="http://www.w3.org/2000/svg">
<rect width="232" height="298" fill="white"/>
<path d="M46.8916 39H184.108C191.821 39.0518 199.198 42.2438 204.616 47.8738C210.034 53.5037 213.049 61.1106 212.999 69.021V248.979C213.049 256.889 210.034 264.496 204.616 270.126C199.198 275.756 191.821 278.948 184.108 279H46.8916C39.179 278.948 31.8024 275.756 26.3843 270.126C20.9662 264.496 17.9505 256.889 18.0006 248.979V69.021C17.9505 61.1106 20.9662 53.5037 26.3843 47.8738C31.8024 42.2438 39.179 39.0518 46.8916 39V39Z" fill="#009E7F"/>
<path d="M165.764 150.862C161.858 145.287 157.242 140.245 152.034 135.862C148.654 133.019 143.745 137.879 147.152 140.744C151.94 144.71 156.192 149.282 159.802 154.344C162.337 157.953 168.327 154.506 165.764 150.859V150.862Z" fill="#006854"/>
<path d="M152.586 154.344C156.196 149.282 160.448 144.71 165.236 140.744C168.636 137.881 163.736 133.018 160.354 135.862C155.145 140.245 150.53 145.287 146.624 150.862C144.064 154.506 150.048 157.962 152.586 154.347V154.344Z" fill="#006854"/>
<path d="M58.95 30H172.05C182.911 30 193.326 34.3512 201.006 42.0965C208.686 49.8417 213 60.3466 213 71.3C213 75.9943 211.151 80.4964 207.86 83.8158C204.568 87.1352 200.105 89 195.45 89H35.55C30.8955 89 26.4315 87.1352 23.1403 83.8158C19.849 80.4964 18 75.9943 18 71.3V71.3C18 60.3466 22.3144 49.8417 29.994 42.0965C37.6736 34.3512 48.0894 30 58.95 30V30Z" fill="#006854"/>
<path d="M27.672 47C24.0664 49.0677 21.2329 52.2543 19.601 56.077C18.5299 58.5652 17.9851 61.2481 18.001 63.957V90.042C17.9654 93.4721 18.8422 96.85 20.5418 99.8297C22.2413 102.809 24.7025 105.284 27.673 106.999C37.721 100.141 44.217 89.257 44.217 76.999C44.217 64.741 37.72 53.858 27.672 47Z" fill="url(#paint0_linear_0_1)"/>
<path d="M203.545 47C207.151 49.0677 209.984 52.2543 211.616 56.077C212.687 58.5652 213.232 61.2481 213.216 63.957V90.042C213.252 93.4721 212.375 96.85 210.675 99.8297C208.976 102.809 206.515 105.284 203.544 106.999C193.496 100.141 187 89.257 187 76.999C187 64.741 193.502 53.858 203.545 47Z" fill="url(#paint1_linear_0_1)"/>
<path d="M116 60C110.067 60 104.266 58.2405 99.3329 54.9441C94.3994 51.6477 90.5543 46.9623 88.2836 41.4805C86.013 35.9987 85.4189 29.9667 86.5765 24.1473C87.734 18.3279 90.5912 12.9824 94.7868 8.78681C98.9824 4.59124 104.328 1.73401 110.147 0.576456C115.967 -0.581101 121.999 0.0129957 127.481 2.28362C132.962 4.55425 137.648 8.39942 140.944 13.3329C144.241 18.2664 146 24.0666 146 30C145.991 37.9537 142.827 45.5791 137.203 51.2033C131.579 56.8274 123.954 59.991 116 60V60ZM116 6.706C111.404 6.76321 106.928 8.17836 103.135 10.7734C99.3411 13.3684 96.3999 17.0274 94.6809 21.29C92.962 25.5526 92.5421 30.2283 93.4741 34.729C94.4061 39.2296 96.6484 43.3541 99.9188 46.5835C103.189 49.8129 107.342 52.0029 111.854 52.878C116.366 53.7531 121.036 53.2742 125.276 51.5015C129.517 49.7289 133.138 46.7417 135.685 42.9158C138.232 39.0899 139.591 34.5961 139.59 30C139.543 23.7852 137.033 17.8426 132.611 13.4757C128.189 9.1089 122.215 6.67432 116 6.706V6.706Z" fill="#006854"/>
<path d="M116 119C110.067 119 104.266 117.241 99.3329 113.944C94.3994 110.648 90.5543 105.962 88.2836 100.481C86.013 94.9987 85.4189 88.9667 86.5765 83.1473C87.734 77.3279 90.5912 71.9824 94.7868 67.7868C98.9824 63.5912 104.328 60.734 110.147 59.5765C115.967 58.4189 121.999 59.013 127.481 61.2836C132.962 63.5542 137.648 67.3994 140.944 72.3329C144.241 77.2664 146 83.0666 146 89C145.991 96.9537 142.827 104.579 137.203 110.203C131.579 115.827 123.954 118.991 116 119V119ZM116 65.706C111.404 65.7632 106.928 67.1784 103.135 69.7734C99.3411 72.3684 96.3999 76.0274 94.6809 80.29C92.962 84.5526 92.5421 89.2283 93.4741 93.729C94.4061 98.2296 96.6484 102.354 99.9188 105.583C103.189 108.813 107.342 111.003 111.854 111.878C116.366 112.753 121.036 112.274 125.276 110.502C129.517 108.729 133.138 105.742 135.685 101.916C138.232 98.0899 139.591 93.5961 139.59 89C139.543 82.7852 137.033 76.8426 132.611 72.4758C128.189 68.1089 122.215 65.6743 116 65.706V65.706Z" fill="#009E7F"/>
<path d="M72.5857 154.344C76.1954 149.282 80.4477 144.71 85.2357 140.744C88.6357 137.881 83.7358 133.018 80.3538 135.862C75.1452 140.245 70.5297 145.287 66.6237 150.862C64.0637 154.506 70.0477 157.962 72.5857 154.347V154.344Z" fill="#006854"/>
<path d="M85.7642 150.862C81.8579 145.287 77.2425 140.245 72.0342 135.862C68.6542 133.019 63.7452 137.879 67.1522 140.744C71.94 144.71 76.1922 149.282 79.8022 154.344C82.3372 157.953 88.3272 154.506 85.7642 150.859V150.862Z" fill="#006854"/>
<path d="M115.689 225.378C131.533 225.378 144.378 212.533 144.378 196.689C144.378 180.845 131.533 168 115.689 168C99.8445 168 87 180.845 87 196.689C87 212.533 99.8445 225.378 115.689 225.378Z" fill="#006854"/>
<path d="M126.917 215.917C132.793 210.042 132.793 200.515 126.917 194.639C121.042 188.763 111.515 188.763 105.639 194.639C99.7633 200.515 99.7633 210.042 105.639 215.917C111.515 221.793 121.042 221.793 126.917 215.917Z" fill="#009E7F"/>
<g style="mix-blend-mode:luminosity" opacity="0.15">
<path d="M115.955 297.732C179.995 297.732 231.91 285.48 231.91 270.366C231.91 255.252 179.995 243 115.955 243C51.9148 243 0 255.252 0 270.366C0 285.48 51.9148 297.732 115.955 297.732Z" fill="#009E7F" fill-opacity="0.5"/>
</g>
<defs>
<linearGradient id="paint0_linear_0_1" x1="44.217" y1="73.3396" x2="18.4819" y2="83.3372" gradientUnits="userSpaceOnUse">
<stop stop-color="#029477"/>
<stop offset="1" stop-color="#009E7F"/>
</linearGradient>
<linearGradient id="paint1_linear_0_1" x1="213.217" y1="73.3396" x2="187.482" y2="83.3373" gradientUnits="userSpaceOnUse">
<stop stop-color="#029477"/>
<stop offset="1" stop-color="#009E7F"/>
</linearGradient>
</defs>
</svg>
