<svg width="20" height="20" viewBox="0 0 20 20" fill="none" xmlns="http://www.w3.org/2000/svg">
<rect width="20" height="20" fill="#F7F7F7"/>
<circle cx="10" cy="10" r="10" fill="#FF5B60"/>
<path d="M11.186 10.0003L14.759 6.42726C14.916 6.27025 15.0042 6.05729 15.0042 5.83525C15.0042 5.61321 14.916 5.40026 14.759 5.24326C14.602 5.08625 14.389 4.99805 14.167 4.99805C13.9449 4.99805 13.732 5.08625 13.575 5.24326L10.002 8.81625L6.42897 5.24326C6.35123 5.16551 6.25894 5.10384 6.15736 5.06177C6.05579 5.01969 5.94692 4.99805 5.83698 4.99805C5.72703 4.99805 5.61816 5.01969 5.51659 5.06177C5.41501 5.10384 5.32271 5.16551 5.24496 5.24326C5.16722 5.321 5.10555 5.41329 5.06348 5.51486C5.0214 5.61644 4.99976 5.72531 4.99976 5.83525C4.99976 5.9452 5.0214 6.05406 5.06348 6.15564C5.10555 6.25722 5.16722 6.34952 5.24496 6.42726L8.81796 10.0003L5.24496 13.5733C5.08796 13.7303 4.99976 13.9432 4.99976 14.1653C4.99976 14.3873 5.08796 14.6003 5.24496 14.7573C5.40197 14.9143 5.61493 15.0025 5.83698 15.0025C6.05902 15.0025 6.27196 14.9143 6.42897 14.7573L10.002 11.1842L13.575 14.7573C13.732 14.9143 13.9449 15.0025 14.167 15.0025C14.389 15.0025 14.602 14.9143 14.759 14.7573C14.916 14.6003 15.0042 14.3873 15.0042 14.1653C15.0042 13.9432 14.916 13.7303 14.759 13.5733L11.186 10.0003Z" fill="white"/>
</svg>
