<svg width="20" height="15" viewBox="0 0 20 15" fill="none" xmlns="http://www.w3.org/2000/svg">
<rect width="20" height="15" fill="white"/>
<path fill-rule="evenodd" clip-rule="evenodd" d="M0 0H20V1.1543H0V0ZM0 2.30859H20V3.46289H0V2.30859ZM0 4.61426H20V5.77148H0V4.61426ZM0 6.92285H20V8.07715H0V6.92285ZM0 9.23145H20V10.3857H0V9.23145ZM0 11.5371H20V12.6914H0V11.5371ZM0 13.8457H20V15H0V13.8457Z" fill="#BD3D44"/>
<path fill-rule="evenodd" clip-rule="evenodd" d="M0 0H11.3994V8.07715H0V0Z" fill="#192F5D"/>
<path fill-rule="evenodd" clip-rule="evenodd" d="M0.939453 0.300003L1.04492 0.619338H1.37891L1.10938 0.815627L1.21191 1.13789L0.939453 0.938674L0.669922 1.13496L0.772461 0.815627L0.5 0.619338H0.839844L0.939453 0.300003ZM2.84082 0.300003L2.94336 0.619338H3.28027L3.00781 0.815627L3.11035 1.13789L2.84082 0.938674L2.56836 1.13496L2.6709 0.815627L2.40137 0.619338H2.73535L2.84082 0.300003ZM4.73926 0.300003L4.84473 0.619338H5.17578L4.90625 0.815627L5.00879 1.13789L4.73633 0.938674L4.4668 1.13496L4.56934 0.815627L4.29688 0.619338H4.63379L4.73926 0.300003ZM6.64063 0.300003L6.74316 0.619338H7.08008L6.80762 0.815627L6.91309 1.13789L6.64063 0.938674L6.36816 1.13496L6.47363 0.815627L6.20117 0.619338H6.53516L6.64063 0.300003ZM8.53906 0.300003L8.64453 0.619338H8.97852L8.70899 0.815627L8.81152 1.13789L8.53906 0.938674L8.26953 1.13496L8.37207 0.815627L8.10254 0.619338H8.43652L8.53906 0.300003ZM10.4404 0.300003L10.543 0.619338H10.8799L10.6074 0.815627L10.7129 1.13789L10.4404 0.938674L10.168 1.13496L10.2734 0.815627L10.001 0.619338H10.3379L10.4404 0.300003ZM1.8916 1.1086L1.99414 1.42793H2.33105L2.05859 1.62422L2.1582 1.94355L1.89453 1.74727L1.62207 1.94355L1.71875 1.62422L1.45508 1.42793H1.78906L1.8916 1.1086ZM3.79004 1.1086L3.89551 1.42793H4.22949L3.95703 1.62422L4.0625 1.94355L3.79004 1.74727L3.51758 1.94355L3.62305 1.62422L3.35059 1.42793H3.6875L3.79004 1.1086ZM5.69141 1.1086L5.79395 1.42793H6.13086L5.8584 1.62422L5.96094 1.94355L5.69141 1.74727L5.41895 1.94355L5.52148 1.62422L5.25195 1.42793H5.58594L5.69141 1.1086ZM7.58984 1.1086L7.69531 1.42793H8.0293L7.75684 1.62422L7.86231 1.94355L7.58984 1.74727L7.32031 1.94355L7.42285 1.62422L7.15039 1.42793H7.49023L7.58984 1.1086ZM9.49121 1.1086L9.59375 1.42793H9.93066L9.6582 1.62422L9.76074 1.94355L9.49121 1.74727L9.21875 1.94355L9.32129 1.62422L9.05176 1.42793H9.38574L9.49121 1.1086ZM0.939453 1.91426L1.04492 2.23945H1.37891L1.10938 2.43574L1.21191 2.75508L0.939453 2.55586L0.669922 2.75508L0.772461 2.43281L0.5 2.23652H0.839844L0.939453 1.91426ZM2.84082 1.91426L2.94336 2.23652H3.28027L3.00781 2.43281L3.11035 2.75215L2.84082 2.55293L2.56836 2.75215L2.6709 2.42988L2.40137 2.23359H2.73535L2.84082 1.91426ZM4.73926 1.91426L4.84473 2.23652H5.17578L4.90625 2.43281L5.00879 2.75215L4.73633 2.55293L4.4668 2.75215L4.56934 2.42988L4.29688 2.23359H4.63379L4.73926 1.91426ZM6.64063 1.91426L6.74316 2.23652H7.08008L6.80762 2.43281L6.91309 2.75215L6.64063 2.55293L6.36816 2.75215L6.47363 2.42988L6.20117 2.23359H6.53516L6.64063 1.91426ZM8.53906 1.91426L8.64453 2.23652H8.97852L8.70899 2.43281L8.81152 2.75215L8.53906 2.55293L8.26953 2.75215L8.37207 2.42988L8.10254 2.23359H8.43652L8.53906 1.91426ZM10.4404 1.91426L10.543 2.23652H10.8799L10.6074 2.43281L10.7129 2.75215L10.4404 2.55293L10.168 2.75215L10.2734 2.42988L10.001 2.23359H10.3379L10.4404 1.91426ZM1.8916 2.72285L1.99414 3.04218H2.33105L2.05859 3.23847L2.16113 3.56074L1.8916 3.36152L1.61914 3.55781L1.72168 3.23847L1.45215 3.04218H1.78613L1.8916 2.72285ZM3.79004 2.72285L3.89551 3.04218H4.22949L3.95703 3.23847L4.0625 3.56074L3.79004 3.36152L3.51758 3.55781L3.62305 3.23847L3.35059 3.04218H3.6875L3.79004 2.72285ZM5.69141 2.72285L5.79395 3.04218H6.13086L5.8584 3.23847L5.96094 3.56074L5.69141 3.36152L5.41895 3.55781L5.52148 3.23847L5.25195 3.04218H5.58594L5.69141 2.72285ZM7.58984 2.72285L7.69531 3.04218H8.0293L7.75977 3.23847L7.86231 3.56074L7.58984 3.36152L7.32031 3.55781L7.42285 3.23847L7.15039 3.04218H7.49023L7.58984 2.72285ZM9.49121 2.72285L9.59375 3.04218H9.93066L9.6582 3.23847L9.76074 3.56074L9.49121 3.36152L9.21875 3.55781L9.32129 3.23847L9.05176 3.04218H9.38574L9.49121 2.72285ZM0.939453 3.53144L1.04492 3.85078H1.37891L1.10938 4.04707L1.21191 4.36933L0.939453 4.17011L0.669922 4.3664L0.772461 4.04707L0.5 3.85078H0.839844L0.939453 3.53144ZM2.84082 3.53144L2.94336 3.85078H3.28027L3.00781 4.04707L3.11035 4.3664L2.84082 4.17011L2.56836 4.3664L2.6709 4.04707L2.40137 3.85078H2.73535L2.84082 3.53144ZM4.73926 3.53144L4.84473 3.85078H5.17578L4.90625 4.04707L5.00879 4.36933L4.73633 4.17011L4.4668 4.3664L4.56934 4.04707L4.29688 3.85078H4.63379L4.73926 3.53144ZM6.64063 3.53144L6.74316 3.85078H7.08008L6.80762 4.04707L6.91309 4.36933L6.64063 4.17011L6.36816 4.3664L6.47363 4.04707L6.20117 3.85078H6.53516L6.64063 3.53144ZM8.53906 3.53144L8.64453 3.85078H8.97852L8.70899 4.04707L8.81152 4.36933L8.53906 4.17011L8.26953 4.3664L8.37207 4.04707L8.10254 3.85078H8.43652L8.53906 3.53144ZM10.4404 3.53144L10.543 3.85078H10.8799L10.6074 4.04707L10.7129 4.36933L10.4404 4.17011L10.168 4.3664L10.2734 4.04707L10.001 3.85078H10.3379L10.4404 3.53144ZM1.8916 4.34003L1.99414 4.65937H2.33105L2.05859 4.85566L2.16113 5.17499L1.8916 4.97577L1.61914 5.17499L1.72168 4.85273L1.45215 4.65644H1.78613L1.8916 4.34003ZM3.79004 4.34003L3.89551 4.65937H4.22949L3.95703 4.85566L4.0625 5.17499L3.79004 4.97577L3.51758 5.17499L3.62305 4.85273L3.35059 4.65644H3.6875L3.79004 4.34003ZM5.69141 4.34003L5.79395 4.65937H6.13086L5.8584 4.85566L5.96094 5.17499L5.69141 4.97577L5.41895 5.17499L5.52148 4.85273L5.25195 4.65644H5.58594L5.69141 4.34003ZM7.58984 4.34003L7.69531 4.65937H8.0293L7.75977 4.85566L7.86231 5.17499L7.58984 4.97577L7.32031 5.17499L7.42285 4.85273L7.15039 4.65644H7.49023L7.58984 4.34003ZM9.49121 4.34003L9.59375 4.65937H9.93066L9.6582 4.85566L9.76074 5.17499L9.49121 4.97577L9.21875 5.17499L9.32129 4.85273L9.05176 4.65644H9.38574L9.49121 4.34003ZM0.939453 5.1457L1.04492 5.46796H1.37891L1.10938 5.66425L1.21191 5.98066L0.939453 5.78437L0.669922 5.98066L0.772461 5.66132L0.5 5.46503H0.839844L0.939453 5.1457ZM2.84082 5.1457L2.94336 5.46796H3.28027L3.00781 5.66425L3.11328 5.98066L2.84082 5.78437L2.56836 5.98066L2.67383 5.66132L2.40137 5.46503H2.73535L2.84082 5.1457ZM4.73926 5.1457L4.84473 5.46796H5.17578L4.90625 5.66425L5.00879 5.98066L4.73633 5.78437L4.4668 5.98066L4.56934 5.66132L4.29688 5.46503H4.63379L4.73926 5.1457ZM6.64063 5.1457L6.74316 5.46796H7.08008L6.80762 5.66425L6.91309 5.98066L6.64063 5.78437L6.36816 5.98066L6.47363 5.66132L6.20117 5.46503H6.53516L6.64063 5.1457ZM8.53906 5.1457L8.64453 5.46796H8.97852L8.70899 5.66425L8.81152 5.98066L8.53906 5.78437L8.26953 5.98066L8.37207 5.66132L8.10254 5.46503H8.43652L8.53906 5.1457ZM10.4404 5.1457L10.543 5.46796H10.8799L10.6074 5.66425L10.7129 5.98066L10.4404 5.78437L10.168 5.98066L10.2734 5.66132L10.001 5.46503H10.3379L10.4404 5.1457ZM1.8916 5.95429L1.99414 6.27362H2.33105L2.05859 6.46991L2.16113 6.79218L1.8916 6.59296L1.61914 6.78925L1.72168 6.46991L1.45215 6.27362H1.78613L1.8916 5.95429ZM3.79004 5.95429L3.89551 6.27362H4.22949L3.95703 6.46991L4.0625 6.79218L3.79004 6.59296L3.51758 6.78925L3.62305 6.46991L3.35059 6.27362H3.6875L3.79004 5.95429ZM5.69141 5.95429L5.79395 6.27362H6.13086L5.8584 6.46991L5.96094 6.79218L5.69141 6.59296L5.41895 6.78925L5.52148 6.46991L5.25195 6.27362H5.58594L5.69141 5.95429ZM7.58984 5.95429L7.69531 6.27362H8.0293L7.75977 6.46991L7.86231 6.79218L7.58984 6.59296L7.32031 6.78925L7.42285 6.46991L7.15039 6.27362H7.49023L7.58984 5.95429ZM9.49121 5.95429L9.59375 6.27362H9.93066L9.6582 6.46991L9.76074 6.79218L9.49121 6.59296L9.21875 6.78925L9.32129 6.46991L9.05176 6.27362H9.38574L9.49121 5.95429ZM0.939453 6.76288L1.04492 7.08222H1.37891L1.10938 7.2785L1.21191 7.59784L0.939453 7.40155L0.669922 7.59784L0.772461 7.27557L0.5 7.07929H0.839844L0.939453 6.76288ZM2.84082 6.76288L2.94336 7.08222H3.28027L3.00781 7.2785L3.11328 7.59784L2.84082 7.40155L2.56836 7.59784L2.67383 7.27557L2.40137 7.07929H2.73535L2.84082 6.76288ZM4.73926 6.76288L4.84473 7.08222H5.17578L4.91211 7.2785L5.01465 7.59784L4.74219 7.40155L4.47266 7.59784L4.5752 7.27557L4.30273 7.07929H4.63965L4.73926 6.76288ZM6.64063 6.76288L6.74316 7.08222H7.08008L6.80762 7.2785L6.91309 7.59784L6.64063 7.40155L6.36816 7.59784L6.47363 7.27557L6.20117 7.07929H6.53516L6.64063 6.76288ZM8.53906 6.76288L8.64453 7.08222H8.97852L8.70899 7.2785L8.81152 7.59784L8.53906 7.40155L8.26953 7.59784L8.37207 7.27557L8.10254 7.07929H8.43652L8.53906 6.76288ZM10.4404 6.76288L10.543 7.08222H10.8799L10.6074 7.2785L10.7129 7.59784L10.4404 7.40155L10.168 7.59784L10.2734 7.27557L10.001 7.07929H10.3379L10.4404 6.76288Z" fill="white"/>
</svg>
