<svg width="43" height="14" viewBox="0 0 43 14" fill="none" xmlns="http://www.w3.org/2000/svg">
<rect width="43" height="14" fill="#E4F4FF"/>
<path d="M12.5252 0.246094L9.03461 9.48752L8.65317 7.61325C8.00783 5.45059 5.98389 3.1009 3.72528 1.93257L6.92257 13.7841H10.6917L16.2942 0.246094H12.5252V0.246094Z" fill="#00579F"/>
<path d="M5.79329 0.199997H0.0586675L0 0.473827C4.47337 1.59846 7.43599 4.30936 8.6532 7.56772L7.40656 1.3392C7.20132 0.473635 6.57059 0.228549 5.79329 0.199997Z" fill="#FAA61A"/>
<path d="M18.5643 13.8024H15L17.2294 0.25H20.7935L18.5643 13.8024Z" fill="#00579F"/>
<path d="M30.6919 0.576978C29.9889 0.302765 28.8738 0 27.495 0C23.9752 0 21.4965 1.84533 21.4813 4.4836C21.4521 6.43011 23.256 7.51125 24.6051 8.16028C25.9841 8.82349 26.4529 9.25637 26.4529 9.84752C26.4388 10.7554 25.3386 11.1739 24.3124 11.1739C22.8893 11.1739 22.1269 10.9582 20.9681 10.4531L20.4988 10.2365L20 13.2787C20.836 13.6532 22.3761 13.9854 23.9752 14C27.7151 14 30.1499 12.1832 30.1788 9.37172C30.193 7.82897 29.2405 6.64684 27.1869 5.68087C25.9403 5.06077 25.1768 4.64265 25.1768 4.00819C25.1914 3.4314 25.8225 2.84062 27.2298 2.84062C28.3885 2.81169 29.2399 3.08552 29.8848 3.35954L30.2072 3.50345L30.6919 0.576978V0.576978Z" fill="#00579F"/>
<path d="M35.5146 8.75125C35.8081 7.97268 36.9376 4.95941 36.9376 4.95941C36.9228 4.98834 37.2305 4.16647 37.4066 3.66192L37.6556 4.82968C37.6556 4.82968 38.3306 8.07367 38.4772 8.75125C37.9201 8.75125 36.2186 8.75125 35.5146 8.75125ZM39.9143 0H37.1573C36.3071 0 35.6611 0.244895 35.2943 1.12445L30 13.5522H33.7399C33.7399 13.5522 34.3556 11.8795 34.488 11.5192C34.8983 11.5192 38.5364 11.5192 39.0643 11.5192C39.1666 11.9951 39.4895 13.5522 39.4895 13.5522H42.7897L39.9143 0V0Z" fill="#00579F"/>
</svg>
